<?xml version="1.0" encoding="UTF-8"?>
<svg width="40px" height="40px" viewBox="0 0 40 40" version="1.1" xmlns="http://www.w3.org/2000/svg" xmlns:xlink="http://www.w3.org/1999/xlink">
    <title>icon / 24dp / application / pishgaman</title>
    <g id="General-|-About-Divar" stroke="none" stroke-width="1" fill="none" fill-rule="evenodd">
        <g id="about_divar-desktop" transform="translate(-593.000000, -689.000000)">
            <g id="content" transform="translate(483.000000, 128.000000)">
                <g id="business_partner" transform="translate(0.000000, 457.000000)">
                    <g transform="translate(0.000000, 100.000000)" id="Group">
                        <g transform="translate(106.000000, 0.000000)" id="icon-/-24dp-/-application-/-pishgaman">
                            <rect id="icon_base" fill-opacity="0" fill="#FFFFFF" x="0" y="0" width="48" height="48"></rect>
                            <g id="application_icon" transform="translate(4.000400, 4.000000)" fill="#51A8DE">
                                <path d="M29.9742,0.0008 L29.9742,19.1768 C29.9742,21.1008 31.5402,22.6688 33.4642,22.6688 L33.4642,22.6688 L40.0002,22.6688 L40.0002,23.8008 L20.2242,23.8008 C18.3002,23.8008 16.7342,25.3668 16.7342,27.2908 L16.7342,27.2908 L16.7342,40.0008 L4.0002,40.0008 C1.7902,40.0008 0.0002,38.2088 0.0002,36.0008 L0.0002,36.0008 L0.0002,25.0008 L9.2742,25.0008 C10.5382,25.0008 11.5662,26.0268 11.5662,27.2908 L11.5662,27.2908 L11.5662,31.1868 C9.9282,31.4748 8.6742,32.8988 8.6742,34.6188 C8.6742,36.5428 10.2402,38.1088 12.1662,38.1088 C14.0902,38.1088 15.6562,36.5428 15.6562,34.6188 C15.6562,32.8988 14.4042,31.4748 12.7662,31.1868 L12.7662,31.1868 L12.7662,27.2908 C12.7662,25.3668 11.1982,23.8008 9.2742,23.8008 L9.2742,23.8008 L0.0002,23.8008 L0.0002,22.0408 L22.4922,22.0408 C24.4162,22.0408 25.9822,20.4748 25.9822,18.5508 L25.9822,18.5508 L25.9822,14.8928 C27.6222,14.6068 28.8742,13.1828 28.8742,11.4628 C28.8742,9.5388 27.3082,7.9708 25.3822,7.9708 C23.4582,7.9708 21.8922,9.5388 21.8922,11.4628 C21.8922,13.1828 23.1442,14.6068 24.7822,14.8928 L24.7822,14.8928 L24.7822,18.5508 C24.7822,19.8128 23.7562,20.8428 22.4922,20.8428 L22.4922,20.8428 L0.0002,20.8428 L0.0002,18.4548 L17.1082,18.4548 C19.0322,18.4548 20.6002,16.8868 20.6002,14.9628 L20.6002,14.9628 L20.6002,0.0008 L29.9742,0.0008 Z M39.9992,24.999 L39.9992,26.401 L26.3112,26.401 C24.3872,26.401 22.8192,27.967 22.8192,29.891 L22.8192,29.891 L22.8192,31.187 C21.1812,31.475 19.9292,32.899 19.9292,34.619 C19.9292,36.543 21.4952,38.109 23.4192,38.109 C25.3452,38.109 26.9112,36.543 26.9112,34.619 C26.9112,32.899 25.6592,31.473 24.0192,31.187 L24.0192,31.187 L24.0192,29.891 C24.0192,28.627 25.0492,27.599 26.3112,27.599 L26.3112,27.599 L39.9992,27.599 L39.9992,35.999 C39.9992,38.209 38.2092,39.999 35.9992,39.999 L35.9992,39.999 L17.9332,39.999 L17.9332,27.291 C17.9332,26.027 18.9612,24.999 20.2252,24.999 L20.2252,24.999 L39.9992,24.999 Z M23.4196,32.3272 C24.6836,32.3272 25.7116,33.3552 25.7116,34.6192 C25.7116,35.8832 24.6836,36.9112 23.4196,36.9112 C22.1556,36.9112 21.1276,35.8832 21.1276,34.6192 C21.1276,33.3552 22.1556,32.3272 23.4196,32.3272 Z M12.1656,32.3272 C13.4296,32.3272 14.4576,33.3552 14.4576,34.6192 C14.4576,35.8832 13.4296,36.9112 12.1656,36.9112 C10.9016,36.9112 9.8736,35.8832 9.8736,34.6192 C9.8736,33.3552 10.9016,32.3272 12.1656,32.3272 Z M35.9996,2.66453526e-14 C38.2076,2.66453526e-14 39.9996,1.792 39.9996,4 L39.9996,4 L39.9996,21.468 L33.4636,21.468 C32.2016,21.468 31.1736,20.44 31.1736,19.176 L31.1736,19.176 L31.1736,2.66453526e-14 Z M19.4,0.0008 L19.4,14.9628 C19.4,16.2268 18.372,17.2548 17.108,17.2548 L17.108,17.2548 L6.57252031e-14,17.2548 L6.57252031e-14,16.0328 L11.55,16.0328 C13.476,16.0328 15.042,14.4668 15.042,12.5428 L15.042,12.5428 L15.042,8.7408 C16.68,8.4548 17.934,7.0288 17.934,5.3088 C17.934,3.3848 16.366,1.8188 14.442,1.8188 C12.518,1.8188 10.95,3.3848 10.95,5.3088 C10.95,7.0288 12.204,8.4548 13.842,8.7408 L13.842,8.7408 L13.842,12.5428 C13.842,13.8048 12.814,14.8348 11.55,14.8348 L11.55,14.8348 L6.57252031e-14,14.8348 L6.57252031e-14,4.0008 C6.57252031e-14,1.7908 1.79,0.0008 4,0.0008 L4,0.0008 L19.4,0.0008 Z M25.3834,9.1708 C26.6454,9.1708 27.6754,10.1988 27.6754,11.4628 C27.6754,12.7268 26.6454,13.7548 25.3834,13.7548 C24.1194,13.7548 23.0914,12.7268 23.0914,11.4628 C23.0914,10.1988 24.1194,9.1708 25.3834,9.1708 Z M14.442,3.0176 C15.706,3.0176 16.734,4.0456 16.734,5.3096 C16.734,6.5736 15.706,7.6016 14.442,7.6016 C13.178,7.6016 12.15,6.5736 12.15,5.3096 C12.15,4.0456 13.178,3.0176 14.442,3.0176 Z"></path>
                            </g>
                        </g>
                    </g>
                </g>
            </g>
        </g>
    </g>
</svg>